# xmcd
#
# Track frame offsets:
#	150
#	27592
#	46817
#	68849
#	87879
#	106931
#	125997
#	145444
#	167167
#	182834
#	206267
#	225019
#	253444
#
# Disc length: 3734 seconds
#
# Revision: 4
# Processed by: cddbd v1.5.2PL0 Copyright (c) Steve Scherf et al.
# Submitted via: audiograbber 1.83.01
#
DISCID=b70e940d
DTITLE=Bright Eyes - Cassadaga
DYEAR=2007
DGENRE=Rock
TTITLE0=Clairaudients (Kill or be killed)
TTITLE1=Four winds
TTITLE2=If the breakman turns my way
TTITLE3=Hot knives
TTITLE4=Make a plan to love me
TTITLE5=Soul singer in a session band
TTITLE6=Classic cars
TTITLE7=Middleman
TTITLE8=Cleanse song
TTITLE9=No one would riot for less
TTITLE10=Coat check dream song
TTITLE11=I must belong somewhere
TTITLE12=Lime tree
EXTD=
EXTT0=
EXTT1=
EXTT2=
EXTT3=
EXTT4=
EXTT5=
EXTT6=
EXTT7=
EXTT8=
EXTT9=
EXTT10=
EXTT11=
EXTT12=
PLAYORDER=
